<?xml version="1.0" encoding="UTF-8" standalone="no"?>
<svg
   viewBox="0 0 498.02997 88.742119"
   version="1.1"
   id="svg4"
   sodipodi:docname="globalicon.svg"
   width="498.02997"
   height="88.742119"
   inkscape:version="1.1 (c68e22c387, 2021-05-23)"
   xmlns:inkscape="http://www.inkscape.org/namespaces/inkscape"
   xmlns:sodipodi="http://sodipodi.sourceforge.net/DTD/sodipodi-0.dtd"
   xmlns="http://www.w3.org/2000/svg"
   xmlns:svg="http://www.w3.org/2000/svg">
  <defs
     id="defs8">
    <rect
       x="128.43987"
       y="212.89346"
       width="386.49255"
       height="90.318443"
       id="rect3159" />
  </defs>
  <sodipodi:namedview
     id="namedview6"
     pagecolor="#505050"
     bordercolor="#ffffff"
     borderopacity="1"
     inkscape:pageshadow="0"
     inkscape:pageopacity="0"
     inkscape:pagecheckerboard="1"
     showgrid="false"
     fit-margin-top="0"
     fit-margin-left="0"
     fit-margin-right="0"
     fit-margin-bottom="0"
     inkscape:zoom="6.8203125"
     inkscape:cx="152.70561"
     inkscape:cy="67.958763"
     inkscape:window-width="2498"
     inkscape:window-height="1417"
     inkscape:window-x="3832"
     inkscape:window-y="-8"
     inkscape:window-maximized="1"
     inkscape:current-layer="svg4" />
  <!--! Font Awesome Pro 6.4.0 by @fontawesome - https://fontawesome.com License - https://fontawesome.com/license (Commercial License) Copyright 2023 Fonticons, Inc. -->
  <path
     d="m 86.436099,33.732943 1.137993,1.985424 c 1.004818,1.755419 2.651275,3.050789 4.600382,3.607677 l 7.009542,1.997532 c 2.082294,0.593216 3.510834,2.493907 3.510834,4.660924 v 4.830408 c 0,1.331707 0.75059,2.542324 1.93702,3.135531 1.18641,0.593216 1.93699,1.803843 1.93699,3.135541 v 4.721444 c 0,1.888585 1.80385,3.25659 3.61978,2.73603 1.94911,-0.5569 3.4624,-2.118602 3.95875,-4.091929 l 0.339,-1.355899 c 0.50845,-2.045965 1.84014,-3.801374 3.6682,-4.842526 l 0.9806,-0.556888 c 1.81596,-1.029026 2.92973,-2.966046 2.92973,-5.048329 V 47.64307 c 0,-1.53749 -0.61743,-3.01447 -1.70699,-4.104036 l -0.47214,-0.472146 c -1.08958,-1.089556 -2.56653,-1.706985 -4.10406,-1.706985 h -5.21781 c -1.34378,0 -2.67547,-0.351085 -3.84978,-1.01693 l -4.17667,-2.384943 c -0.52056,-0.302653 -0.92007,-0.786905 -1.11378,-1.355899 -0.38739,-1.162213 0.13317,-2.421264 1.23484,-2.966046 l 0.71427,-0.363182 c 0.79902,-0.39951 1.73119,-0.472147 2.57865,-0.181602 l 2.80865,0.932198 c 0.99272,0.326863 2.08229,-0.04844 2.65128,-0.907985 0.56901,-0.847444 0.50847,-1.973319 -0.14528,-2.760232 l -1.64645,-1.97332 c -1.21064,-1.452765 -1.19853,-3.571357 0.0364,-4.999902 l 1.90068,-2.21545 c 1.06536,-1.246954 1.23484,-3.026576 0.42372,-4.443015 L 111.6899,16.21513 c -0.42374,-0.02421 -0.83533,-0.03632 -1.25906,-0.03632 -11.234647,0 -20.762289,7.372722 -23.99467,17.55412 z m 49.187871,7.62696 c 0,-4.455112 -1.16223,-8.643899 -3.19606,-12.287884 l -3.09921,1.246955 c -1.90069,0.762681 -2.8813,2.881292 -2.23968,4.818283 l 2.04598,6.137904 c 0.42372,1.259051 1.45275,2.21545 2.73601,2.530207 l 3.52295,0.883771 c 0.14526,-1.089574 0.2179,-2.203352 0.2179,-3.329236 z m -56.173203,0 a 30.992108,30.992108 0 1 1 61.984213,0 30.992108,30.992108 0 1 1 -61.984213,0 z"
     id="path2"
     style="fill:#115555;fill-opacity:1;stroke-width:0.121064" />
  <g
     aria-label="gl  balchat"
     transform="matrix(2.3576546,0,0,2.3576546,-307.15395,-518.62818)"
     id="text3157"
     style="font-size:40px;line-height:1.25;font-family:Montserrat;-inkscape-font-specification:Montserrat;white-space:pre;shape-inside:url(#rect3159)">
    <path
       d="m 151.87945,228.61632 v 18.48 q 0,5.36 -2.64,7.92 -2.6,2.6 -7.88,2.6 -2.92,0 -5.56,-0.88 -2.6,-0.84 -4.24,-2.36 l 1.44,-2.16 q 1.52,1.36 3.68,2.12 2.2,0.76 4.6,0.76 4,0 5.88,-1.88 1.88,-1.84 1.88,-5.76 v -2.68 q -1.32,2 -3.48,3.04 -2.12,1.04 -4.72,1.04 -2.96,0 -5.4,-1.28 -2.4,-1.32 -3.8,-3.64 -1.36,-2.36 -1.36,-5.32 0,-2.96 1.36,-5.28 1.4,-2.32 3.8,-3.6 2.4,-1.28 5.4,-1.28 2.68,0 4.84,1.08 2.16,1.08 3.48,3.12 v -4.04 z m -10.76,17.72 q 2.28,0 4.12,-0.96 1.84,-1 2.84,-2.76 1.04,-1.76 1.04,-4 0,-2.24 -1.04,-3.96 -1,-1.76 -2.84,-2.72 -1.8,-1 -4.12,-1 -2.28,0 -4.12,0.96 -1.8,0.96 -2.84,2.72 -1,1.76 -1,4 0,2.24 1,4 1.04,1.76 2.84,2.76 1.84,0.96 4.12,0.96 z"
       style="font-size:40px;line-height:1.25;font-family:Montserrat;-inkscape-font-specification:Montserrat;white-space:pre;shape-inside:url(#rect3159)"
       id="path30029" />
    <path
       d="m 159.83941,219.97632 h 2.84 v 29.68 h -2.84 z"
       style="font-size:40px;line-height:1.25;font-family:Montserrat;-inkscape-font-specification:Montserrat;white-space:pre;shape-inside:url(#rect3159)"
       id="path30031" />
    <path
       d="m 202.3993,228.45632 q 2.96,0 5.36,1.36 2.4,1.32 3.76,3.76 1.36,2.44 1.36,5.56 0,3.12 -1.36,5.56 -1.36,2.44 -3.76,3.8 -2.4,1.36 -5.36,1.36 -2.64,0 -4.76,-1.12 -2.08,-1.12 -3.36,-3.24 v 4.16 h -2.72 v -29.68 h 2.84 v 12.64 q 1.32,-2.04 3.36,-3.08 2.08,-1.08 4.64,-1.08 z m -0.2,18.88 q 2.2,0 4,-1 1.8,-1.04 2.8,-2.92 1.04,-1.88 1.04,-4.28 0,-2.4 -1.04,-4.28 -1,-1.88 -2.8,-2.88 -1.8,-1.04 -4,-1.04 -2.24,0 -4.04,1.04 -1.76,1 -2.8,2.88 -1,1.88 -1,4.28 0,2.4 1,4.28 1.04,1.88 2.8,2.92 1.8,1 4.04,1 z"
       style="font-size:40px;line-height:1.25;font-family:Montserrat;-inkscape-font-specification:Montserrat;white-space:pre;shape-inside:url(#rect3159)"
       id="path30033" />
    <path
       d="m 225.91927,228.45632 q 4.12,0 6.32,2.08 2.2,2.04 2.2,6.08 v 13.04 h -2.72 v -3.28 q -0.96,1.64 -2.84,2.56 -1.84,0.92 -4.4,0.92 -3.52,0 -5.6,-1.68 -2.08,-1.68 -2.08,-4.44 0,-2.68 1.92,-4.32 1.96,-1.64 6.2,-1.64 h 6.68 v -1.28 q 0,-2.72 -1.52,-4.12 -1.52,-1.44 -4.44,-1.44 -2,0 -3.84,0.68 -1.84,0.64 -3.16,1.8 l -1.28,-2.12 q 1.6,-1.36 3.84,-2.08 2.24,-0.76 4.72,-0.76 z m -1,19.16 q 2.4,0 4.12,-1.08 1.72,-1.12 2.56,-3.2 v -3.44 h -6.6 q -5.4,0 -5.4,3.76 0,1.84 1.4,2.92 1.4,1.04 3.92,1.04 z"
       style="font-size:40px;line-height:1.25;font-family:Montserrat;-inkscape-font-specification:Montserrat;white-space:pre;shape-inside:url(#rect3159)"
       id="path30035" />
    <path
       d="m 242.1592,219.97632 h 2.84 v 29.68 h -2.84 z"
       style="font-size:40px;line-height:1.25;font-family:Montserrat;-inkscape-font-specification:Montserrat;white-space:pre;shape-inside:url(#rect3159)"
       id="path30037" />
    <path
       d="m 262.23917,249.97632 q -3.44,0 -6.2,-1.4 -2.72,-1.44 -4.28,-3.96 -1.52,-2.52 -1.52,-5.72 0,-3.2 1.52,-5.72 1.56,-2.52 4.28,-3.92 2.76,-1.44 6.2,-1.44 3.4,0 5.92,1.44 2.56,1.4 3.72,4.04 l -4.84,2.6 q -1.68,-2.96 -4.84,-2.96 -2.44,0 -4.04,1.6 -1.6,1.6 -1.6,4.36 0,2.76 1.6,4.36 1.6,1.6 4.04,1.6 3.2,0 4.84,-2.96 l 4.84,2.64 q -1.16,2.56 -3.72,4 -2.52,1.44 -5.92,1.44 z"
       style="font-weight:bold;fill:#115555;fill-opacity:1"
       id="path30039" />
    <path
       d="m 288.39909,227.81632 q 4,0 6.44,2.4 2.48,2.4 2.48,7.12 v 12.32 h -6.24 v -11.36 q 0,-2.56 -1.12,-3.8 -1.12,-1.28 -3.24,-1.28 -2.36,0 -3.76,1.48 -1.4,1.44 -1.4,4.32 v 10.64 h -6.24 v -29.68 h 6.24 v 10.4 q 1.24,-1.24 3,-1.88 1.76,-0.68 3.84,-0.68 z"
       style="font-weight:bold;fill:#115555;fill-opacity:1"
       id="path30041" />
    <path
       d="m 311.63909,227.81632 q 5,0 7.68,2.4 2.68,2.36 2.68,7.16 v 12.28 h -5.84 v -2.68 q -1.76,3 -6.56,3 -2.48,0 -4.32,-0.84 -1.8,-0.84 -2.76,-2.32 -0.96,-1.48 -0.96,-3.36 0,-3 2.24,-4.72 2.28,-1.72 7,-1.72 h 4.96 q 0,-2.04 -1.24,-3.12 -1.24,-1.12 -3.72,-1.12 -1.72,0 -3.4,0.56 -1.64,0.52 -2.8,1.44 l -2.24,-4.36 q 1.76,-1.24 4.2,-1.92 2.48,-0.68 5.08,-0.68 z m -0.48,17.96 q 1.6,0 2.84,-0.72 1.24,-0.76 1.76,-2.2 v -2.2 h -4.28 q -3.84,0 -3.84,2.52 0,1.2 0.92,1.92 0.96,0.68 2.6,0.68 z"
       style="font-weight:bold;fill:#115555;fill-opacity:1"
       id="path30043" />
    <path
       d="m 341.51903,248.61632 q -0.92,0.68 -2.28,1.04 -1.32,0.32 -2.8,0.32 -3.84,0 -5.96,-1.96 -2.08,-1.96 -2.08,-5.76 v -8.84 h -3.32 v -4.8 h 3.32 v -5.24 h 6.24 v 5.24 h 5.36 v 4.8 h -5.36 v 8.76 q 0,1.36 0.68,2.12 0.72,0.72 2,0.72 1.48,0 2.52,-0.8 z"
       style="font-weight:bold;fill:#115555;fill-opacity:1"
       id="path30045" />
  </g>
</svg>
