<?xml version="1.0" encoding="UTF-8" standalone="no"?>
<svg
   viewBox="0 0 512.91498 88.742119"
   version="1.1"
   id="svg4"
   sodipodi:docname="globalicon.svg"
   width="512.91498"
   height="88.742119"
   inkscape:version="1.2.1 (9c6d41e410, 2022-07-14)"
   xmlns:inkscape="http://www.inkscape.org/namespaces/inkscape"
   xmlns:sodipodi="http://sodipodi.sourceforge.net/DTD/sodipodi-0.dtd"
   xmlns="http://www.w3.org/2000/svg"
   xmlns:svg="http://www.w3.org/2000/svg">
  <defs
     id="defs8">
    <rect
       x="128.43987"
       y="212.89346"
       width="386.49255"
       height="90.318443"
       id="rect3159" />
  </defs>
  <sodipodi:namedview
     id="namedview6"
     pagecolor="#505050"
     bordercolor="#ffffff"
     borderopacity="1"
     inkscape:pageshadow="0"
     inkscape:pageopacity="0"
     inkscape:pagecheckerboard="1"
     showgrid="false"
     fit-margin-top="0"
     fit-margin-left="0"
     fit-margin-right="0"
     fit-margin-bottom="0"
     inkscape:zoom="1.7050781"
     inkscape:cx="229.02177"
     inkscape:cy="82.400918"
     inkscape:window-width="1920"
     inkscape:window-height="1111"
     inkscape:window-x="-9"
     inkscape:window-y="-9"
     inkscape:window-maximized="1"
     inkscape:current-layer="svg4"
     inkscape:showpageshadow="2"
     inkscape:deskcolor="#505050" />
  <!--! Font Awesome Pro 6.4.0 by @fontawesome - https://fontawesome.com License - https://fontawesome.com/license (Commercial License) Copyright 2023 Fonticons, Inc. -->
  <path
     d="m 86.436104,33.73294 1.137993,1.985424 c 1.004818,1.755419 2.651275,3.050789 4.600382,3.607677 l 7.009542,1.997532 c 2.082299,0.593216 3.510839,2.493907 3.510839,4.660924 v 4.830408 c 0,1.331707 0.75059,2.542324 1.93702,3.135531 1.18641,0.593216 1.93699,1.803843 1.93699,3.135541 v 4.721444 c 0,1.888585 1.80385,3.25659 3.61978,2.73603 1.94911,-0.5569 3.4624,-2.118602 3.95875,-4.091929 l 0.339,-1.355899 c 0.50845,-2.045965 1.84014,-3.801374 3.6682,-4.842526 l 0.9806,-0.556888 c 1.81596,-1.029026 2.92973,-2.966046 2.92973,-5.048329 v -1.004813 c 0,-1.53749 -0.61743,-3.01447 -1.70699,-4.104036 L 119.8858,43.066885 C 118.79622,41.977329 117.31927,41.3599 115.78174,41.3599 h -5.21781 c -1.34378,0 -2.67547,-0.351085 -3.84978,-1.01693 l -4.17667,-2.384943 c -0.52056,-0.302653 -0.92007,-0.786905 -1.11378,-1.355899 -0.38739,-1.162213 0.13317,-2.421264 1.23484,-2.966046 l 0.71427,-0.363182 c 0.79902,-0.39951 1.73119,-0.472147 2.57865,-0.181602 l 2.80865,0.932198 c 0.99272,0.326863 2.08229,-0.04844 2.65128,-0.907985 0.56901,-0.847444 0.50847,-1.973319 -0.14528,-2.760232 l -1.64645,-1.97332 c -1.21064,-1.452765 -1.19853,-3.571357 0.0364,-4.999902 l 1.90068,-2.21545 c 1.06536,-1.246954 1.23484,-3.026576 0.42372,-4.443015 l -0.29055,-0.508465 c -0.42374,-0.02421 -0.83533,-0.03632 -1.25906,-0.03632 -11.234652,0 -20.762294,7.372722 -23.994675,17.55412 z m 49.187876,7.62696 c 0,-4.455112 -1.16223,-8.643899 -3.19606,-12.287884 l -3.09921,1.246955 c -1.90069,0.762681 -2.8813,2.881292 -2.23968,4.818283 l 2.04598,6.137904 c 0.42372,1.259051 1.45275,2.21545 2.73601,2.530207 l 3.52295,0.883771 c 0.14526,-1.089574 0.2179,-2.203352 0.2179,-3.329236 z m -56.173208,0 a 30.992108,30.992108 0 1 1 61.984218,0 30.992108,30.992108 0 1 1 -61.984218,0 z"
     id="path2"
     style="fill:#115555;fill-opacity:1;stroke-width:0.121064" />
  <g
     aria-label="gl  balchat"
     transform="matrix(2.3576546,0,0,2.3576546,-307.15394,-518.62818)"
     id="text3157"
     style="font-size:40px;line-height:1.25;font-family:Montserrat;-inkscape-font-specification:Montserrat;white-space:pre;shape-inside:url(#rect3159)">
    <path
       d="m 151.87945,228.61632 v 18.48 q 0,5.36 -2.64,7.92 -2.6,2.6 -7.88,2.6 -2.92,0 -5.56,-0.88 -2.6,-0.84 -4.24,-2.36 l 1.44,-2.16 q 1.52,1.36 3.68,2.12 2.2,0.76 4.6,0.76 4,0 5.88,-1.88 1.88,-1.84 1.88,-5.76 v -2.68 q -1.32,2 -3.48,3.04 -2.12,1.04 -4.72,1.04 -2.96,0 -5.4,-1.28 -2.4,-1.32 -3.8,-3.64 -1.36,-2.36 -1.36,-5.32 0,-2.96 1.36,-5.28 1.4,-2.32 3.8,-3.6 2.4,-1.28 5.4,-1.28 2.68,0 4.84,1.08 2.16,1.08 3.48,3.12 v -4.04 z m -10.76,17.72 q 2.28,0 4.12,-0.96 1.84,-1 2.84,-2.76 1.04,-1.76 1.04,-4 0,-2.24 -1.04,-3.96 -1,-1.76 -2.84,-2.72 -1.8,-1 -4.12,-1 -2.28,0 -4.12,0.96 -1.8,0.96 -2.84,2.72 -1,1.76 -1,4 0,2.24 1,4 1.04,1.76 2.84,2.76 1.84,0.96 4.12,0.96 z"
       style="font-size:40px;line-height:1.25;font-family:Montserrat;-inkscape-font-specification:Montserrat;white-space:pre;shape-inside:url(#rect3159)"
       id="path30029" />
    <path
       d="m 159.83941,219.97632 h 2.84 v 29.68 h -2.84 z"
       style="font-size:40px;line-height:1.25;font-family:Montserrat;-inkscape-font-specification:Montserrat;white-space:pre;shape-inside:url(#rect3159)"
       id="path30031" />
    <path
       d="m 202.3993,228.45632 q 2.96,0 5.36,1.36 2.4,1.32 3.76,3.76 1.36,2.44 1.36,5.56 0,3.12 -1.36,5.56 -1.36,2.44 -3.76,3.8 -2.4,1.36 -5.36,1.36 -2.64,0 -4.76,-1.12 -2.08,-1.12 -3.36,-3.24 v 4.16 h -2.72 v -29.68 h 2.84 v 12.64 q 1.32,-2.04 3.36,-3.08 2.08,-1.08 4.64,-1.08 z m -0.2,18.88 q 2.2,0 4,-1 1.8,-1.04 2.8,-2.92 1.04,-1.88 1.04,-4.28 0,-2.4 -1.04,-4.28 -1,-1.88 -2.8,-2.88 -1.8,-1.04 -4,-1.04 -2.24,0 -4.04,1.04 -1.76,1 -2.8,2.88 -1,1.88 -1,4.28 0,2.4 1,4.28 1.04,1.88 2.8,2.92 1.8,1 4.04,1 z"
       style="font-size:40px;line-height:1.25;font-family:Montserrat;-inkscape-font-specification:Montserrat;white-space:pre;shape-inside:url(#rect3159)"
       id="path30033" />
    <path
       d="m 225.91927,228.45632 q 4.12,0 6.32,2.08 2.2,2.04 2.2,6.08 v 13.04 h -2.72 v -3.28 q -0.96,1.64 -2.84,2.56 -1.84,0.92 -4.4,0.92 -3.52,0 -5.6,-1.68 -2.08,-1.68 -2.08,-4.44 0,-2.68 1.92,-4.32 1.96,-1.64 6.2,-1.64 h 6.68 v -1.28 q 0,-2.72 -1.52,-4.12 -1.52,-1.44 -4.44,-1.44 -2,0 -3.84,0.68 -1.84,0.64 -3.16,1.8 l -1.28,-2.12 q 1.6,-1.36 3.84,-2.08 2.24,-0.76 4.72,-0.76 z m -1,19.16 q 2.4,0 4.12,-1.08 1.72,-1.12 2.56,-3.2 v -3.44 h -6.6 q -5.4,0 -5.4,3.76 0,1.84 1.4,2.92 1.4,1.04 3.92,1.04 z"
       style="font-size:40px;line-height:1.25;font-family:Montserrat;-inkscape-font-specification:Montserrat;white-space:pre;shape-inside:url(#rect3159)"
       id="path30035" />
    <path
       d="m 242.1592,219.97632 h 2.84 v 29.68 h -2.84 z"
       style="font-size:40px;line-height:1.25;font-family:Montserrat;-inkscape-font-specification:Montserrat;white-space:pre;shape-inside:url(#rect3159)"
       id="path30037" />
  </g>
  <g
     aria-label="news"
     id="text567"
     style="font-weight:bold;font-size:96px;font-family:Raleway;-inkscape-font-specification:'Raleway Bold';fill:none;stroke:#000000;stroke-width:5.50677;paint-order:markers fill stroke">
    <path
       d="m 327.6687,69.01519 h -12.864 v -28.224 q 0,-6.048 -2.112,-8.832 -2.112,-2.784 -5.856,-2.784 -2.592,0 -5.28,1.344 -2.592,1.344 -4.704,3.744 -2.112,2.304 -3.072,5.376 v 29.376 h -12.864 v -50.304 h 11.616 v 9.312 q 1.92,-3.264 4.896,-5.472 2.976,-2.304 6.816,-3.456 3.936,-1.248 8.256,-1.248 4.704,0 7.68,1.728 3.072,1.632 4.608,4.512 1.632,2.784 2.208,6.336 0.672,3.552 0.672,7.2 z"
       style="fill:#115555;stroke:none"
       id="path303" />
    <path
       d="m 362.22871,69.97519 q -6.048,0 -10.944,-2.016 -4.896,-2.112 -8.352,-5.664 -3.456,-3.648 -5.376,-8.256 -1.824,-4.704 -1.824,-9.888 0,-7.2 3.168,-13.152 3.264,-5.952 9.216,-9.504 6.048,-3.648 14.208,-3.648 8.256,0 14.112,3.648 5.856,3.552 8.928,9.504 3.168,5.856 3.168,12.672 0,1.152 -0.096,2.4 -0.096,1.152 -0.192,1.92 h -38.88 q 0.384,3.84 2.208,6.72 1.92,2.88 4.8,4.416 2.976,1.44 6.336,1.44 3.84,0 7.2,-1.824 3.456,-1.92 4.704,-4.992 l 11.04,3.072 q -1.824,3.84 -5.28,6.816 -3.36,2.976 -7.968,4.704 -4.608,1.632 -10.176,1.632 z m -13.152,-30.144 h 26.304 q -0.384,-3.84 -2.208,-6.624 -1.728,-2.88 -4.608,-4.416 -2.88,-1.632 -6.432,-1.632 -3.456,0 -6.336,1.632 -2.784,1.536 -4.608,4.416 -1.728,2.784 -2.112,6.624 z"
       style="fill:#115555;stroke:none"
       id="path305" />
    <path
       d="m 457.33098,18.71119 h 12.192 l -21.024,50.304 h -10.752 l -8.448,-21.6 -8.256,21.6 h -10.848 l -20.928,-50.304 h 12.096 l 14.976,38.016 5.856,-16.416 -8.736,-21.504 h 10.656 l 5.184,15.36 5.28,-15.36 h 10.656 l -8.736,21.504 5.952,16.416 z"
       style="fill:#115555;stroke:none"
       id="path307" />
    <path
       d="m 492.755,69.97519 q -6.432,0 -12.288,-2.112 -5.856,-2.112 -10.08,-6.24 l 4.608,-8.352 q 4.512,3.648 8.832,5.376 4.416,1.728 8.448,1.728 3.744,0 5.952,-1.344 2.304,-1.344 2.304,-4.032 0,-1.824 -1.248,-2.784 -1.248,-1.056 -3.648,-1.824 -2.304,-0.768 -5.664,-1.728 -5.568,-1.824 -9.312,-3.552 -3.744,-1.728 -5.664,-4.32 -1.824,-2.688 -1.824,-6.816 0,-4.992 2.496,-8.544 2.592,-3.648 7.104,-5.664 4.608,-2.016 10.752,-2.016 5.376,0 10.176,1.728 4.8,1.632 8.736,5.376 l -5.184,8.16 q -3.84,-2.976 -7.296,-4.32 -3.456,-1.44 -7.008,-1.44 -2.016,0 -3.84,0.48 -1.728,0.48 -2.88,1.632 -1.056,1.056 -1.056,3.072 0,1.824 0.96,2.88 1.056,0.96 3.072,1.728 2.112,0.768 5.088,1.728 6.048,1.728 10.176,3.552 4.224,1.824 6.336,4.512 2.112,2.592 2.112,7.2 0,7.488 -5.472,11.712 -5.472,4.224 -14.688,4.224 z"
       style="fill:#115555;stroke:none"
       id="path309" />
  </g>
</svg>
